# xmcd
#
# Track frame offsets: 
#        150
#        17043
#        31164
#        46773
#        66132
#        87353
#        104645
#        121980
#        135369
#        151063
#        168764
#
# Disc length: 2487 seconds
#
# Revision: 0
# Processed by: cddbd v1.5.2PL0 Copyright (c) Steve Scherf et al.
# Submitted via: ExactAudioCopyFreeDBPlugin 1.0
#
DISCID=7d09b50b
DTITLE=Martina McBride - Waking Up Laughing
DYEAR=2007
DGENRE=Country
TTITLE0=If I Had Your Name
TTITLE1=Cry Cry (Til The Sun Shines)
TTITLE2=Tryin To Find A Reason
TTITLE3=For These Times
TTITLE4=Anyway
TTITLE5=How I Feel
TTITLE6=Ill Still Be Me
TTITLE7=Beautiful Again
TTITLE8=Everybody Does
TTITLE9=House Of A Thousand Dreams
TTITLE10=Love Land
EXTD=
EXTT0=
EXTT1=
EXTT2=
EXTT3=
EXTT4=
EXTT5=
EXTT6=
EXTT7=
EXTT8=
EXTT9=
EXTT10=
PLAYORDER=
